<?xml version="1.0" encoding="utf-8"?>
<svg width="72px" height="72px" viewBox="0 0 72 72" version="1.1" xmlns:xlink="http://www.w3.org/1999/xlink" xmlns="http://www.w3.org/2000/svg">
  <desc>Created with Lunacy</desc>
  <g id="Group">
    <path d="M0 0L72 0L72 72L0 72L0 0Z" id="Rectangle" fill="none" stroke="none" />
    <g id="address-book-solid" transform="translate(9.674988 3.825012)">
      <path d="M55.3729 20.3203C56.2111 20.3203 56.8969 19.6345 56.8969 18.7963L56.8969 13.7162C56.8969 12.878 56.2111 12.1922 55.3729 12.1922L52.8328 12.1922L52.8328 6.09609C52.8328 2.73054 50.1023 0 46.7367 0L6.0961 0C2.73054 0 0 2.73054 0 6.09609L0 58.9289C0 62.2945 2.73054 65.025 6.0961 65.025L46.7367 65.025C50.1023 65.025 52.8328 62.2945 52.8328 58.9289L52.8328 52.8328L55.3729 52.8328C56.2111 52.8328 56.8969 52.147 56.8969 51.3088L56.8969 46.2287C56.8969 45.3905 56.2111 44.7047 55.3729 44.7047L52.8328 44.7047L52.8328 36.5766L55.3729 36.5766C56.2111 36.5766 56.8969 35.8908 56.8969 35.0525L56.8969 29.9725C56.8969 29.1342 56.2111 28.4484 55.3729 28.4484L52.8328 28.4484L52.8328 20.3203L55.3729 20.3203L55.3729 20.3203ZM26.4164 16.2563C30.8996 16.2563 34.5445 19.9012 34.5445 24.3844C34.5445 28.8675 30.8996 32.5125 26.4164 32.5125C21.9332 32.5125 18.2883 28.8675 18.2883 24.3844C18.2883 19.9012 21.9332 16.2563 26.4164 16.2563L26.4164 16.2563ZM40.6406 46.3303C40.6406 47.6765 39.3706 48.7688 37.7958 48.7688L15.037 48.7688C13.4622 48.7688 12.1922 47.6765 12.1922 46.3303L12.1922 43.8919C12.1922 39.8532 16.0149 36.5766 20.7267 36.5766L21.3617 36.5766C22.9239 37.2243 24.6257 37.5926 26.4164 37.5926C28.2071 37.5926 29.9217 37.2243 31.4711 36.5766L32.1061 36.5766C36.8179 36.5766 40.6406 39.8532 40.6406 43.8919L40.6406 46.3303L40.6406 46.3303Z" id="Shape" fill="#57AEAD" stroke="none" />
    </g>
  </g>
</svg>
